<?xml version="1.0" encoding="UTF-8" standalone="no"?><!DOCTYPE svg PUBLIC "-//W3C//DTD SVG 1.1//EN" "http://www.w3.org/Graphics/SVG/1.1/DTD/svg11.dtd"><svg width="100%" height="100%" viewBox="0 0 480 384" version="1.1" xmlns="http://www.w3.org/2000/svg" xmlns:xlink="http://www.w3.org/1999/xlink" xml:space="preserve" xmlns:serif="http://www.serif.com/" style="fill-rule:evenodd;clip-rule:evenodd;stroke-linejoin:round;stroke-miterlimit:2;"><path d="M64.545,85.31l0,-47.283c0,-9.537 1.589,-13.113 13.112,-13.113c24.636,0 37.35,11.126 37.35,32.978c0,22.252 -14.305,34.569 -41.721,34.569c-6.755,0 -8.741,-1.589 -8.741,-7.151m-46.091,85.427l69.137,0l0,-4.37c-19.867,-0.398 -23.046,-4.769 -23.046,-25.43l0,-36.158c0,-3.973 0.794,-4.371 3.973,-4.371l2.385,0c17.482,0 32.184,-0.397 44.898,-5.563c15.1,-5.96 24.636,-20.263 24.636,-38.144c0,-25.827 -18.675,-40.132 -54.833,-40.132l-67.15,0l0,4.768c19.073,0.796 21.456,4.769 21.456,19.471l0,100.129c0,20.265 -2.781,25.43 -21.456,25.43l0,4.37Z" style="fill:#0081c7;"/><path d="M237.879,116.336l13.113,32.864c0.794,2.349 1.192,4.696 1.192,6.652c-0,7.434 -4.371,9.781 -15.099,10.172l-0,4.304l57.614,0l-0,-4.304c-5.165,0 -8.344,-0.782 -11.523,-3.521c-2.782,-2.739 -5.563,-7.042 -8.344,-13.694l-54.436,-132.24l-4.767,0l-56.821,129.893c-5.96,13.302 -10.33,19.171 -20.264,19.562l-0,4.304l45.297,0l-0,-4.304l-1.192,0c-10.33,0 -15.1,-3.13 -15.1,-9.39c-0,-2.738 0.795,-6.65 3.18,-12.129l11.522,-28.169l29.006,-68.076l26.622,68.076Z" style="fill:#0081c7;"/><path d="M340.357,144.66l0,-98.143l96.157,123.97l4.371,0l0,-128.34c0,-15.497 1.985,-19.47 20.661,-21.06l0,-4.768l-51.257,0l0,4.768c18.278,1.59 20.265,5.563 20.265,21.06l0,83.838l-84.236,-109.666l-36.556,-0l0,4.768c9.537,0.796 15.496,5.96 20.662,15.894l0,107.679c0,15.497 -2.385,19.471 -20.662,21.059l0,4.768l50.859,0l0,-4.768c-18.277,-1.588 -20.264,-5.562 -20.264,-21.059" style="fill:#0081c7;"/><path d="M22.335,357.294l0,5.662c0.021,1.306 0.253,2.085 0.699,2.338c0.313,0.202 0.683,0.329 1.108,0.379c0.314,0.031 0.688,0.056 1.123,0.076l0,0.592l-8.713,0l0,-0.592c0.981,-0.091 1.654,-0.263 2.019,-0.516c0.172,-0.131 0.288,-0.268 0.349,-0.41c0.162,-0.243 0.243,-0.981 0.243,-2.216l0,-13.465c-0.02,-1.285 -0.223,-2.044 -0.607,-2.277c-0.355,-0.233 -1.023,-0.405 -2.004,-0.516l0,-0.592l8.212,0c2.065,0 3.912,0.41 5.541,1.23c0.84,0.425 1.493,1.057 1.958,1.897c0.425,0.739 0.638,1.569 0.638,2.49c0,1.447 -0.486,2.707 -1.457,3.78c-0.84,0.91 -1.933,1.533 -3.279,1.867c-0.992,0.243 -2.217,0.364 -3.674,0.364c-0.729,0 -1.447,-0.03 -2.156,-0.091Zm-0,-1.245c0.598,0.061 1.174,0.091 1.731,0.091c1.467,0 2.616,-0.238 3.446,-0.713c1.336,-0.769 2.004,-2.05 2.004,-3.841c-0,-1.821 -0.658,-3.102 -1.974,-3.84c-0.971,-0.557 -2.368,-0.835 -4.189,-0.835c-0.426,0 -0.704,0.076 -0.835,0.227c-0.122,0.152 -0.183,0.43 -0.183,0.835l-0,8.076Z" style="fill:#0081c7;fill-rule:nonzero;"/><path d="M43.794,345.317c1.406,0 2.75,0.283 4.03,0.85c1.28,0.567 2.396,1.366 3.347,2.398c1.751,1.913 2.626,4.408 2.626,7.484c-0,1.69 -0.288,3.249 -0.865,4.676c-0.577,1.427 -1.401,2.611 -2.474,3.552c-1.883,1.67 -4.16,2.505 -6.831,2.505c-1.458,0 -2.839,-0.276 -4.145,-0.828c-1.305,-0.551 -2.423,-1.328 -3.354,-2.33c-0.83,-0.901 -1.48,-2.032 -1.951,-3.393c-0.471,-1.361 -0.706,-2.79 -0.706,-4.288c0,-1.65 0.286,-3.17 0.858,-4.562c0.572,-1.391 1.394,-2.563 2.467,-3.514c1.902,-1.7 4.235,-2.55 6.998,-2.55Zm-0.258,1.123c-1.67,-0 -3.117,0.673 -4.342,2.019c-0.658,0.719 -1.187,1.771 -1.586,3.158c-0.4,1.386 -0.6,2.853 -0.6,4.402c0,2.469 0.471,4.65 1.412,6.542c0.475,0.962 1.24,1.741 2.292,2.338c0.891,0.506 1.872,0.759 2.945,0.759c1.609,-0 2.96,-0.551 4.053,-1.654c0.719,-0.719 1.23,-1.468 1.533,-2.247c0.678,-1.761 1.017,-3.729 1.017,-5.905c0,-2.358 -0.475,-4.453 -1.427,-6.285c-0.506,-0.971 -1.275,-1.756 -2.307,-2.353c-0.89,-0.516 -1.887,-0.774 -2.99,-0.774Z" style="fill:#0081c7;fill-rule:nonzero;"/><path d="M71.749,360.937l0.774,0l-1.487,5.404l-16.729,0l0,-0.592c0.951,-0.07 1.614,-0.222 1.989,-0.455c0.455,-0.263 0.693,-1.042 0.713,-2.338l0,-13.814c-0.02,-1.285 -0.253,-2.059 -0.698,-2.322c-0.365,-0.233 -1.033,-0.39 -2.004,-0.471l0,-0.592l8.759,0l0,0.592c-1.053,0.071 -1.776,0.228 -2.171,0.471c-0.455,0.263 -0.693,1.037 -0.713,2.322l0,14.71c0,0.475 0.096,0.789 0.288,0.941c0.253,0.213 1.053,0.324 2.399,0.334l2.064,0c2.631,-0.03 4.423,-0.622 5.374,-1.776c0.425,-0.466 0.906,-1.27 1.442,-2.414Z" style="fill:#0081c7;fill-rule:nonzero;"/><path d="M75.568,362.956l0,-13.814c-0.02,-1.305 -0.238,-2.074 -0.653,-2.307c-0.304,-0.193 -0.678,-0.319 -1.123,-0.38c-0.344,-0.04 -0.759,-0.076 -1.245,-0.106l0,-0.592l9.245,0l0,0.592c-0.871,0.04 -1.427,0.101 -1.67,0.182c-0.496,0.122 -0.83,0.324 -1.002,0.607c-0.243,0.405 -0.369,1.073 -0.38,2.004l0,13.814c0.021,1.296 0.269,2.08 0.744,2.353c0.304,0.192 0.683,0.314 1.139,0.364c0.324,0.031 0.713,0.056 1.169,0.076l0,0.592l-9.245,0l0,-0.592c0.88,-0.03 1.442,-0.086 1.685,-0.167c0.486,-0.131 0.815,-0.334 0.987,-0.607c0.222,-0.344 0.339,-1.017 0.349,-2.019Z" style="fill:#0081c7;fill-rule:nonzero;"/><path d="M95.295,345.332l0.684,6.618l-0.775,0c-0.293,-1.092 -0.607,-1.907 -0.941,-2.444c-0.648,-1.032 -1.457,-1.806 -2.429,-2.322c-0.728,-0.385 -1.497,-0.577 -2.307,-0.577c-1.123,0 -1.979,0.334 -2.566,1.002c-0.455,0.516 -0.683,1.144 -0.683,1.882c0,0.557 0.152,1.103 0.456,1.64c0.233,0.405 0.731,0.906 1.495,1.503c0.764,0.597 1.642,1.163 2.634,1.7c2.783,1.508 4.523,2.96 5.222,4.357c0.394,0.789 0.592,1.593 0.592,2.413c0,1.599 -0.602,2.945 -1.807,4.038c-1.194,1.093 -2.702,1.64 -4.523,1.64c-1.255,0 -2.485,-0.238 -3.689,-0.714c-0.607,-0.233 -1.093,-0.349 -1.457,-0.349c-0.264,0 -0.486,0.126 -0.668,0.379c-0.122,0.173 -0.193,0.39 -0.213,0.653l-0.683,0l-0.926,-6.603l0.713,0c0.415,1.012 0.792,1.794 1.131,2.345c0.339,0.552 0.777,1.086 1.313,1.602c1.063,1.042 2.348,1.563 3.856,1.563c1.286,0 2.272,-0.389 2.96,-1.169c0.567,-0.657 0.85,-1.432 0.85,-2.322c0,-0.79 -0.141,-1.397 -0.425,-1.822c-0.809,-1.214 -2.358,-2.429 -4.645,-3.643c-2.236,-1.184 -3.658,-2.368 -4.265,-3.552c-0.395,-0.759 -0.592,-1.584 -0.592,-2.475c0,-1.649 0.551,-2.96 1.654,-3.931c1.073,-0.942 2.303,-1.412 3.689,-1.412c1.073,0 2.181,0.228 3.325,0.683c0.587,0.243 1.052,0.364 1.396,0.364c0.506,0 0.83,-0.349 0.972,-1.047l0.652,0Z" style="fill:#0081c7;fill-rule:nonzero;"/><path d="M104.26,355.184l9.427,0l0,-6.042c-0.02,-1.295 -0.228,-2.059 -0.622,-2.292c-0.365,-0.233 -1.068,-0.4 -2.11,-0.501l0,-0.592l8.637,0l0,0.592c-1.032,0.101 -1.735,0.273 -2.11,0.516c-0.394,0.233 -0.602,0.992 -0.622,2.277l0,13.814c0.02,1.265 0.233,2.024 0.637,2.277c0.395,0.263 1.093,0.435 2.095,0.516l0,0.592l-8.637,0l0,-0.592c0.992,-0.06 1.685,-0.222 2.079,-0.485c0.193,-0.132 0.314,-0.264 0.365,-0.395c0.192,-0.233 0.288,-0.987 0.288,-2.262l0,-6.057l-9.427,0l0,6.406c0.021,1.265 0.233,2.024 0.638,2.277c0.395,0.263 1.093,0.435 2.095,0.516l0,0.592l-8.638,0l0,-0.592c0.992,-0.06 1.685,-0.222 2.08,-0.485c0.192,-0.132 0.314,-0.264 0.364,-0.395c0.192,-0.233 0.289,-0.987 0.289,-2.262l0,-13.465c-0.021,-1.295 -0.228,-2.059 -0.623,-2.292c-0.364,-0.233 -1.067,-0.4 -2.11,-0.501l0,-0.592l8.638,0l0,0.592c-1.033,0.101 -1.736,0.273 -2.11,0.516c-0.395,0.233 -0.602,0.992 -0.623,2.277l0,6.042Z" style="fill:#0081c7;fill-rule:nonzero;"/><path d="M148.072,365.749l0,0.592l-7.924,0l0,-0.592c0.871,-0.01 1.452,-0.101 1.746,-0.273c0.283,-0.162 0.425,-0.415 0.425,-0.759c0,-0.486 -0.197,-1.189 -0.592,-2.11l-1.275,-2.975l-8.137,0l-1.427,3.628c-0.162,0.415 -0.243,0.82 -0.243,1.214c0,0.84 0.704,1.265 2.11,1.275l0,0.592l-6.163,0l0,-0.592c0.395,-0.02 0.729,-0.096 1.002,-0.227c0.253,-0.132 0.425,-0.258 0.516,-0.38c0.304,-0.374 0.656,-0.944 1.055,-1.708c0.4,-0.764 0.828,-1.692 1.283,-2.785l6.467,-15.256l0.622,0l7.742,17.654c0.709,1.559 1.326,2.404 1.852,2.535c0.223,0.081 0.537,0.137 0.941,0.167Zm-15.225,-7.392l7.18,0l-3.613,-8.562l-3.567,8.562Z" style="fill:#0081c7;fill-rule:nonzero;"/><path d="M165.25,352.315l-0.714,0c-0.354,-1.235 -0.718,-2.136 -1.093,-2.702c-0.668,-1.033 -1.523,-1.817 -2.565,-2.353c-0.921,-0.466 -1.928,-0.699 -3.021,-0.699c-1.842,0 -3.416,0.603 -4.721,1.807c-1.781,1.66 -2.672,4.139 -2.672,7.438c0,1.741 0.23,3.287 0.691,4.638c0.46,1.351 1.121,2.401 1.981,3.15c1.366,1.214 3.041,1.821 5.025,1.821c1.811,0 3.501,-0.526 5.07,-1.578c0.526,-0.355 1.148,-0.876 1.867,-1.564l0.562,0.547c-0.628,0.84 -1.341,1.533 -2.141,2.079c-1.852,1.255 -3.972,1.883 -6.36,1.883c-1.529,0 -2.978,-0.284 -4.35,-0.85c-1.371,-0.567 -2.512,-1.352 -3.423,-2.353c-0.809,-0.891 -1.434,-1.976 -1.874,-3.257c-0.441,-1.28 -0.661,-2.649 -0.661,-4.106c0,-3.522 1.124,-6.264 3.37,-8.228c2.004,-1.771 4.377,-2.656 7.12,-2.656c1.457,0 2.94,0.253 4.448,0.759c0.536,0.172 0.951,0.258 1.244,0.258c0.344,0 0.658,-0.132 0.942,-0.395c0.151,-0.141 0.268,-0.349 0.349,-0.622l0.652,0l0.274,6.983Z" style="fill:#0081c7;fill-rule:nonzero;"/><path d="M186.936,365.749l0,0.592l-7.925,0l0,-0.592c0.871,-0.01 1.453,-0.101 1.746,-0.273c0.284,-0.162 0.425,-0.415 0.425,-0.759c0,-0.486 -0.197,-1.189 -0.592,-2.11l-1.275,-2.975l-8.137,0l-1.426,3.628c-0.162,0.415 -0.243,0.82 -0.243,1.214c0,0.84 0.703,1.265 2.11,1.275l0,0.592l-6.163,0l0,-0.592c0.394,-0.02 0.728,-0.096 1.001,-0.227c0.253,-0.132 0.425,-0.258 0.517,-0.38c0.303,-0.374 0.655,-0.944 1.055,-1.708c0.399,-0.764 0.827,-1.692 1.282,-2.785l6.467,-15.256l0.622,0l7.742,17.654c0.709,1.559 1.326,2.404 1.852,2.535c0.223,0.081 0.537,0.137 0.942,0.167Zm-15.226,-7.392l7.18,0l-3.613,-8.562l-3.567,8.562Z" style="fill:#0081c7;fill-rule:nonzero;"/><path d="M189.737,362.956l0,-13.814c-0.02,-1.315 -0.222,-2.085 -0.607,-2.307c-0.354,-0.223 -1.063,-0.385 -2.125,-0.486l0,-0.592l8.394,0c2.136,0 4.033,0.276 5.693,0.827c1.66,0.552 3.016,1.359 4.068,2.422c1.761,1.76 2.642,4.073 2.642,6.937c0,1.518 -0.276,2.94 -0.828,4.266c-0.551,1.325 -1.333,2.449 -2.345,3.37c-0.961,0.86 -2.219,1.535 -3.772,2.026c-1.554,0.491 -3.231,0.736 -5.032,0.736l-8.82,0l0,-0.592c1.002,-0.07 1.695,-0.232 2.08,-0.485c0.414,-0.243 0.632,-1.012 0.652,-2.308Zm3.173,-14.846l-0,15.803c-0,0.485 0.096,0.809 0.288,0.971c0.223,0.202 0.658,0.304 1.306,0.304c1.872,-0 3.36,-0.182 4.463,-0.547c3.633,-1.204 5.45,-4.033 5.45,-8.486c-0,-3.42 -1.23,-5.991 -3.689,-7.711c-1.478,-1.032 -3.557,-1.549 -6.239,-1.549c-0.729,-0 -1.189,0.117 -1.382,0.35c-0.131,0.162 -0.197,0.45 -0.197,0.865Z" style="fill:#0081c7;fill-rule:nonzero;"/><path d="M226.588,361.089l-1.396,5.252l-16.79,0l0,-0.592c0.952,-0.07 1.614,-0.222 1.989,-0.455c0.455,-0.263 0.693,-1.042 0.713,-2.338l0,-13.814c-0.02,-1.285 -0.253,-2.059 -0.698,-2.322c-0.364,-0.233 -1.032,-0.39 -2.004,-0.471l0,-0.592l16.516,0l0.092,4.448l-0.775,0c-0.212,-1.083 -0.501,-1.857 -0.865,-2.323c-0.212,-0.253 -0.425,-0.42 -0.638,-0.501c-0.556,-0.283 -1.634,-0.43 -3.233,-0.44l-4.19,0c-0.455,0 -0.733,0.061 -0.835,0.182c-0.131,0.142 -0.197,0.435 -0.197,0.881l0,6.891l4.782,0c1.508,-0.02 2.419,-0.273 2.732,-0.759c0.284,-0.394 0.516,-1.123 0.699,-2.186l0.713,0l0,7.211l-0.713,0c-0.183,-1.083 -0.415,-1.832 -0.699,-2.247c-0.313,-0.475 -1.224,-0.723 -2.732,-0.743l-4.782,0l0,7.681c0.01,0.546 0.086,0.87 0.228,0.971c0.293,0.223 1.31,0.339 3.051,0.349l0.82,0c2.317,-0.02 3.901,-0.288 4.751,-0.804c0.769,-0.435 1.382,-1.037 1.837,-1.807c0.233,-0.394 0.486,-0.885 0.759,-1.472l0.865,0Z" style="fill:#0081c7;fill-rule:nonzero;"/><path d="M247.045,348.505l-7.955,17.836l-0.44,0l-7.803,-17.108l-0,12.539c0.031,1.963 0.344,3.127 0.941,3.492c0.415,0.273 1.078,0.435 1.989,0.485l-0,0.592l-7.317,0l-0,-0.592c1.002,-0.081 1.71,-0.258 2.125,-0.531c0.567,-0.324 0.866,-1.472 0.896,-3.446l-0,-12.63c-0.02,-1.305 -0.253,-2.08 -0.698,-2.322c-0.284,-0.193 -0.648,-0.314 -1.093,-0.365c-0.324,-0.04 -0.714,-0.076 -1.169,-0.106l-0,-0.592l6.163,0l7.18,15.696l6.877,-15.696l6.178,0l-0,0.592c-0.971,0.081 -1.644,0.238 -2.019,0.471c-0.435,0.263 -0.663,1.037 -0.683,2.322l-0,13.814c0.02,1.296 0.258,2.075 0.714,2.338c0.374,0.233 1.037,0.385 1.988,0.455l-0,0.592l-8.698,0l-0,-0.592c1.022,-0.07 1.731,-0.227 2.125,-0.47c0.446,-0.263 0.678,-1.154 0.699,-2.672l-0,-14.102Z" style="fill:#0081c7;fill-rule:nonzero;"/><path d="M274.651,345.757l0,0.592c-0.547,0.061 -0.997,0.172 -1.351,0.334c-0.79,0.364 -1.771,1.432 -2.945,3.203l-4.6,7.028l0,6.042c0.02,1.316 0.253,2.095 0.698,2.338c0.324,0.202 0.719,0.329 1.184,0.379c0.365,0.041 0.805,0.066 1.321,0.076l0,0.592l-9.518,0l0,-0.592c0.931,-0.04 1.523,-0.101 1.776,-0.182c0.506,-0.131 0.845,-0.334 1.017,-0.607c0.223,-0.324 0.339,-1.108 0.349,-2.353l0,-5.404l-4.068,-5.966c-2.074,-2.985 -3.42,-4.554 -4.038,-4.706c-0.253,-0.091 -0.587,-0.152 -1.002,-0.182l0,-0.592l8.699,0l0,0.592c-0.375,0.02 -0.633,0.035 -0.775,0.046c-0.951,0.04 -1.427,0.328 -1.427,0.865c0,0.405 0.173,0.87 0.517,1.396l4.614,6.892l4.448,-7.028c0.284,-0.446 0.425,-0.825 0.425,-1.139c0,-0.344 -0.121,-0.587 -0.364,-0.728c-0.334,-0.193 -0.926,-0.294 -1.776,-0.304l0,-0.592l6.816,0Z" style="fill:#0081c7;fill-rule:nonzero;"/><path d="M292.535,345.317c1.407,0 2.75,0.283 4.03,0.85c1.28,0.567 2.396,1.366 3.348,2.398c1.75,1.913 2.626,4.408 2.626,7.484c0,1.69 -0.289,3.249 -0.866,4.676c-0.576,1.427 -1.401,2.611 -2.474,3.552c-1.882,1.67 -4.159,2.505 -6.831,2.505c-1.457,0 -2.839,-0.276 -4.144,-0.828c-1.306,-0.551 -2.424,-1.328 -3.355,-2.33c-0.83,-0.901 -1.48,-2.032 -1.951,-3.393c-0.47,-1.361 -0.706,-2.79 -0.706,-4.288c0,-1.65 0.286,-3.17 0.858,-4.562c0.572,-1.391 1.394,-2.563 2.467,-3.514c1.902,-1.7 4.235,-2.55 6.998,-2.55Zm-0.258,1.123c-1.67,-0 -3.117,0.673 -4.342,2.019c-0.657,0.719 -1.186,1.771 -1.586,3.158c-0.4,1.386 -0.6,2.853 -0.6,4.402c0,2.469 0.471,4.65 1.412,6.542c0.476,0.962 1.24,1.741 2.292,2.338c0.891,0.506 1.873,0.759 2.945,0.759c1.609,-0 2.96,-0.551 4.053,-1.654c0.719,-0.719 1.23,-1.468 1.534,-2.247c0.678,-1.761 1.017,-3.729 1.017,-5.905c0,-2.358 -0.476,-4.453 -1.427,-6.285c-0.506,-0.971 -1.275,-1.756 -2.308,-2.353c-0.89,-0.516 -1.887,-0.774 -2.99,-0.774Z" style="fill:#0081c7;fill-rule:nonzero;"/><path d="M317.561,359.161l-0.714,0c-0.162,-1.042 -0.4,-1.781 -0.713,-2.216c-0.324,-0.486 -1.225,-0.744 -2.703,-0.774l-4.508,0l0,6.785c0.02,1.296 0.253,2.075 0.698,2.338c0.405,0.243 1.113,0.395 2.125,0.455l0,0.592l-8.698,0l0,-0.592c0.962,-0.07 1.635,-0.222 2.019,-0.455c0.435,-0.253 0.663,-1.149 0.683,-2.687l0,-13.465c-0.02,-1.285 -0.253,-2.059 -0.698,-2.322c-0.364,-0.233 -1.032,-0.39 -2.004,-0.471l0,-0.592l16.501,0l0.091,4.448l-0.774,0c-0.202,-1.083 -0.486,-1.857 -0.85,-2.323c-0.223,-0.253 -0.435,-0.42 -0.638,-0.501c-0.556,-0.283 -1.634,-0.43 -3.233,-0.44l-4.235,0c-0.436,0 -0.704,0.066 -0.805,0.197c-0.121,0.132 -0.182,0.42 -0.182,0.866l0,6.891l4.508,0c1.478,-0.02 2.384,-0.278 2.718,-0.774c0.303,-0.425 0.536,-1.148 0.698,-2.171l0.714,0l0,7.211Z" style="fill:#0081c7;fill-rule:nonzero;"/><path d="M339.756,345.332l0.683,6.618l-0.774,0c-0.294,-1.092 -0.607,-1.907 -0.941,-2.444c-0.648,-1.032 -1.458,-1.806 -2.429,-2.322c-0.729,-0.385 -1.498,-0.577 -2.308,-0.577c-1.123,0 -1.978,0.334 -2.565,1.002c-0.456,0.516 -0.683,1.144 -0.683,1.882c-0,0.557 0.152,1.103 0.455,1.64c0.233,0.405 0.731,0.906 1.495,1.503c0.765,0.597 1.642,1.163 2.634,1.7c2.783,1.508 4.524,2.96 5.222,4.357c0.395,0.789 0.592,1.593 0.592,2.413c-0,1.599 -0.602,2.945 -1.806,4.038c-1.194,1.093 -2.702,1.64 -4.524,1.64c-1.255,0 -2.484,-0.238 -3.689,-0.714c-0.607,-0.233 -1.093,-0.349 -1.457,-0.349c-0.263,0 -0.486,0.126 -0.668,0.379c-0.121,0.173 -0.192,0.39 -0.212,0.653l-0.684,0l-0.926,-6.603l0.714,0c0.415,1.012 0.792,1.794 1.131,2.345c0.339,0.552 0.777,1.086 1.313,1.602c1.063,1.042 2.348,1.563 3.856,1.563c1.285,0 2.272,-0.389 2.96,-1.169c0.567,-0.657 0.85,-1.432 0.85,-2.322c-0,-0.79 -0.142,-1.397 -0.425,-1.822c-0.81,-1.214 -2.358,-2.429 -4.645,-3.643c-2.237,-1.184 -3.659,-2.368 -4.266,-3.552c-0.395,-0.759 -0.592,-1.584 -0.592,-2.475c-0,-1.649 0.552,-2.96 1.655,-3.931c1.072,-0.942 2.302,-1.412 3.689,-1.412c1.072,0 2.18,0.228 3.324,0.683c0.587,0.243 1.052,0.364 1.397,0.364c0.506,0 0.829,-0.349 0.971,-1.047l0.653,0Z" style="fill:#0081c7;fill-rule:nonzero;"/><path d="M361.487,352.315l-0.713,0c-0.354,-1.235 -0.719,-2.136 -1.093,-2.702c-0.668,-1.033 -1.523,-1.817 -2.566,-2.353c-0.921,-0.466 -1.927,-0.699 -3.02,-0.699c-1.842,0 -3.416,0.603 -4.722,1.807c-1.781,1.66 -2.671,4.139 -2.671,7.438c0,1.741 0.23,3.287 0.69,4.638c0.461,1.351 1.121,2.401 1.981,3.15c1.367,1.214 3.042,1.821 5.025,1.821c1.812,0 3.502,-0.526 5.07,-1.578c0.527,-0.355 1.149,-0.876 1.868,-1.564l0.561,0.547c-0.627,0.84 -1.341,1.533 -2.14,2.079c-1.852,1.255 -3.972,1.883 -6.361,1.883c-1.528,0 -2.978,-0.284 -4.349,-0.85c-1.371,-0.567 -2.512,-1.352 -3.423,-2.353c-0.81,-0.891 -1.435,-1.976 -1.875,-3.257c-0.44,-1.28 -0.66,-2.649 -0.66,-4.106c0,-3.522 1.123,-6.264 3.37,-8.228c2.004,-1.771 4.377,-2.656 7.119,-2.656c1.458,0 2.94,0.253 4.448,0.759c0.537,0.172 0.952,0.258 1.245,0.258c0.344,0 0.658,-0.132 0.941,-0.395c0.152,-0.141 0.268,-0.349 0.349,-0.622l0.653,0l0.273,6.983Z" style="fill:#0081c7;fill-rule:nonzero;"/><path d="M365.61,362.956l0,-13.814c-0.021,-1.305 -0.238,-2.074 -0.653,-2.307c-0.304,-0.193 -0.678,-0.319 -1.123,-0.38c-0.345,-0.04 -0.759,-0.076 -1.245,-0.106l0,-0.592l9.245,0l0,0.592c-0.871,0.04 -1.427,0.101 -1.67,0.182c-0.496,0.122 -0.83,0.324 -1.002,0.607c-0.243,0.405 -0.37,1.073 -0.38,2.004l0,13.814c0.021,1.296 0.269,2.08 0.744,2.353c0.304,0.192 0.683,0.314 1.139,0.364c0.324,0.031 0.713,0.056 1.169,0.076l0,0.592l-9.245,0l0,-0.592c0.88,-0.03 1.442,-0.086 1.685,-0.167c0.486,-0.131 0.814,-0.334 0.987,-0.607c0.222,-0.344 0.339,-1.017 0.349,-2.019Z" style="fill:#0081c7;fill-rule:nonzero;"/><path d="M390.013,361.089l-1.397,5.252l-16.789,0l-0,-0.592c0.951,-0.07 1.614,-0.222 1.989,-0.455c0.455,-0.263 0.693,-1.042 0.713,-2.338l-0,-13.814c-0.02,-1.285 -0.253,-2.059 -0.698,-2.322c-0.365,-0.233 -1.033,-0.39 -2.004,-0.471l-0,-0.592l16.516,0l0.091,4.448l-0.774,0c-0.213,-1.083 -0.501,-1.857 -0.865,-2.323c-0.213,-0.253 -0.425,-0.42 -0.638,-0.501c-0.557,-0.283 -1.634,-0.43 -3.233,-0.44l-4.19,0c-0.456,0 -0.734,0.061 -0.835,0.182c-0.132,0.142 -0.197,0.435 -0.197,0.881l-0,6.891l4.781,0c1.508,-0.02 2.419,-0.273 2.733,-0.759c0.283,-0.394 0.516,-1.123 0.698,-2.186l0.714,0l-0,7.211l-0.714,0c-0.182,-1.083 -0.415,-1.832 -0.698,-2.247c-0.314,-0.475 -1.225,-0.723 -2.733,-0.743l-4.781,0l-0,7.681c0.01,0.546 0.086,0.87 0.227,0.971c0.294,0.223 1.311,0.339 3.052,0.349l0.819,0c2.318,-0.02 3.902,-0.288 4.752,-0.804c0.769,-0.435 1.381,-1.037 1.837,-1.807c0.232,-0.394 0.485,-0.885 0.759,-1.472l0.865,0Z" style="fill:#0081c7;fill-rule:nonzero;"/><path d="M408.541,366.691l-0.531,-0l-13.738,-17.124l0,12.205c0.03,1.963 0.344,3.127 0.941,3.492c0.415,0.273 1.078,0.435 1.989,0.485l0,0.592l-7.317,-0l0,-0.592c1.002,-0.081 1.71,-0.258 2.125,-0.531c0.567,-0.324 0.865,-1.472 0.896,-3.446l0,-13.708c-0.648,-0.769 -1.179,-1.265 -1.594,-1.487c-0.314,-0.152 -0.79,-0.228 -1.427,-0.228l0,-0.592l5.313,-0l11.977,15.044l0,-10.475c-0.03,-1.983 -0.334,-3.142 -0.911,-3.476c-0.405,-0.253 -1.098,-0.42 -2.079,-0.501l0,-0.592l7.316,-0l0,0.592c-0.981,0.111 -1.664,0.293 -2.049,0.546c-0.587,0.334 -0.891,1.478 -0.911,3.431l0,16.365Z" style="fill:#0081c7;fill-rule:nonzero;"/><path d="M429.711,352.315l-0.713,0c-0.355,-1.235 -0.719,-2.136 -1.093,-2.702c-0.668,-1.033 -1.523,-1.817 -2.566,-2.353c-0.921,-0.466 -1.928,-0.699 -3.021,-0.699c-1.842,0 -3.415,0.603 -4.721,1.807c-1.781,1.66 -2.672,4.139 -2.672,7.438c0,1.741 0.231,3.287 0.691,4.638c0.461,1.351 1.121,2.401 1.981,3.15c1.366,1.214 3.041,1.821 5.025,1.821c1.811,0 3.501,-0.526 5.07,-1.578c0.526,-0.355 1.149,-0.876 1.867,-1.564l0.562,0.547c-0.628,0.84 -1.341,1.533 -2.141,2.079c-1.852,1.255 -3.972,1.883 -6.36,1.883c-1.528,0 -2.978,-0.284 -4.349,-0.85c-1.371,-0.567 -2.513,-1.352 -3.423,-2.353c-0.81,-0.891 -1.435,-1.976 -1.875,-3.257c-0.44,-1.28 -0.66,-2.649 -0.66,-4.106c0,-3.522 1.123,-6.264 3.37,-8.228c2.003,-1.771 4.377,-2.656 7.119,-2.656c1.457,0 2.94,0.253 4.448,0.759c0.536,0.172 0.951,0.258 1.245,0.258c0.344,0 0.658,-0.132 0.941,-0.395c0.152,-0.141 0.268,-0.349 0.349,-0.622l0.653,0l0.273,6.983Z" style="fill:#0081c7;fill-rule:nonzero;"/><path d="M448.816,361.089l-1.396,5.252l-16.79,0l-0,-0.592c0.952,-0.07 1.615,-0.222 1.989,-0.455c0.455,-0.263 0.693,-1.042 0.713,-2.338l-0,-13.814c-0.02,-1.285 -0.253,-2.059 -0.698,-2.322c-0.364,-0.233 -1.032,-0.39 -2.004,-0.471l-0,-0.592l16.516,0l0.092,4.448l-0.775,0c-0.212,-1.083 -0.501,-1.857 -0.865,-2.323c-0.212,-0.253 -0.425,-0.42 -0.637,-0.501c-0.557,-0.283 -1.635,-0.43 -3.234,-0.44l-4.19,0c-0.455,0 -0.733,0.061 -0.835,0.182c-0.131,0.142 -0.197,0.435 -0.197,0.881l-0,6.891l4.782,0c1.508,-0.02 2.419,-0.273 2.732,-0.759c0.284,-0.394 0.516,-1.123 0.699,-2.186l0.713,0l-0,7.211l-0.713,0c-0.183,-1.083 -0.415,-1.832 -0.699,-2.247c-0.313,-0.475 -1.224,-0.723 -2.732,-0.743l-4.782,0l-0,7.681c0.01,0.546 0.086,0.87 0.228,0.971c0.293,0.223 1.31,0.339 3.051,0.349l0.82,0c2.317,-0.02 3.901,-0.288 4.751,-0.804c0.769,-0.435 1.382,-1.037 1.837,-1.807c0.233,-0.394 0.486,-0.885 0.759,-1.472l0.865,0Z" style="fill:#0081c7;fill-rule:nonzero;"/><path d="M462.199,345.332l0.683,6.618l-0.774,0c-0.294,-1.092 -0.608,-1.907 -0.942,-2.444c-0.647,-1.032 -1.457,-1.806 -2.428,-2.322c-0.729,-0.385 -1.498,-0.577 -2.308,-0.577c-1.123,0 -1.978,0.334 -2.565,1.002c-0.456,0.516 -0.683,1.144 -0.683,1.882c0,0.557 0.151,1.103 0.455,1.64c0.233,0.405 0.731,0.906 1.495,1.503c0.764,0.597 1.642,1.163 2.634,1.7c2.783,1.508 4.524,2.96 5.222,4.357c0.395,0.789 0.592,1.593 0.592,2.413c0,1.599 -0.602,2.945 -1.806,4.038c-1.195,1.093 -2.703,1.64 -4.524,1.64c-1.255,0 -2.485,-0.238 -3.689,-0.714c-0.607,-0.233 -1.093,-0.349 -1.457,-0.349c-0.263,0 -0.486,0.126 -0.668,0.379c-0.122,0.173 -0.192,0.39 -0.213,0.653l-0.683,0l-0.926,-6.603l0.714,0c0.415,1.012 0.792,1.794 1.131,2.345c0.339,0.552 0.776,1.086 1.313,1.602c1.062,1.042 2.348,1.563 3.855,1.563c1.286,0 2.272,-0.389 2.961,-1.169c0.566,-0.657 0.85,-1.432 0.85,-2.322c0,-0.79 -0.142,-1.397 -0.425,-1.822c-0.81,-1.214 -2.358,-2.429 -4.646,-3.643c-2.236,-1.184 -3.658,-2.368 -4.265,-3.552c-0.395,-0.759 -0.592,-1.584 -0.592,-2.475c0,-1.649 0.551,-2.96 1.654,-3.931c1.073,-0.942 2.303,-1.412 3.689,-1.412c1.073,0 2.181,0.228 3.325,0.683c0.587,0.243 1.052,0.364 1.396,0.364c0.506,0 0.83,-0.349 0.972,-1.047l0.653,0Z" style="fill:#0081c7;fill-rule:nonzero;"/><path d="M62.212,314.248c3.098,0.9 6.159,1.604 9.171,2.134c16.241,2.863 31.338,0.704 47.259,-1.85c33.526,-6.923 65.441,-26.381 94.197,-39.608c8.249,-3.801 16.302,-7.552 24.158,-11.229c-41.972,-22.321 -70.962,-44.814 -88.702,-66.161c-20.371,-24.529 -26.002,-47.665 -19.449,-67.444c1.979,-5.972 4.622,-11.29 7.856,-15.905c7.29,-10.389 17.58,-17.274 30.034,-20.223c12.294,-2.9 26.703,-1.95 42.415,3.294c12.318,4.109 25.436,10.846 38.96,20.409c1.008,0.715 1.254,2.11 0.541,3.122c-0.714,1.011 -2.103,1.258 -3.111,0.542c-13.179,-9.315 -25.903,-15.855 -37.78,-19.828c-14.888,-4.973 -28.473,-5.898 -40.004,-3.171c-11.372,2.69 -20.741,8.958 -27.392,18.434c-2.999,4.282 -5.446,9.205 -7.278,14.72c-6.061,18.299 -0.639,39.954 18.65,63.188c17.79,21.42 47.296,44.087 90.337,66.642l0.012,0.012c32.961,-15.399 62.639,-29.218 90.104,-38.534c22.166,-7.514 45.07,-11.179 65.552,-9.242c18.662,1.777 42.414,7.922 53.467,24.53c2.532,3.813 4.622,7.601 6.233,11.352c3.27,7.613 4.61,15.115 3.934,22.506c-1.094,12.104 -7.49,23.819 -19.781,34.845c-0.163,0.145 -0.166,0.15 -0.32,0.271c-29.414,23.136 -63.769,21.926 -97.885,11.611c-28.67,-8.674 -58.102,-25.097 -87.719,-43.494c-47.172,20.741 -98.426,41.828 -131.472,48.245c-15.429,2.998 -37.891,3.035 -57.524,-2.221c-26.334,-7.058 -46.165,-21.482 -48.107,-49.85c-0.664,-9.661 1.561,-19.273 6.774,-28.441c6.233,-10.969 13.425,-17.842 22.154,-22.049c8.643,-4.158 18.687,-5.627 30.735,-5.787c16.966,-0.235 34.842,3.541 53.307,9.896c18.368,6.329 37.337,15.226 56.565,25.257c1.094,0.568 1.525,1.925 0.959,3.023c-0.565,1.099 -1.918,1.53 -3.012,0.963c-19.056,-9.945 -37.829,-18.755 -55.95,-24.999c-18.036,-6.219 -35.419,-9.908 -51.807,-9.673c-11.434,0.16 -20.888,1.505 -28.867,5.355c-7.893,3.8 -14.445,10.105 -20.199,20.223c-4.77,8.378 -6.799,17.139 -6.196,25.924c1.672,24.32 16.695,36.646 39.181,43.211Zm331.51,-92.258c-20.593,2.752 -42.587,10.871 -60.967,18.854c-19.547,8.489 -45.021,20.174 -72.104,32.143c28.46,17.57 56.675,33.117 84.017,41.384c32.85,9.933 64.395,11.325 93.964,-10.92c10.282,-7.735 17.297,-20.964 18.293,-31.908c0.873,-9.612 -2.004,-19.644 -8.704,-29.848c-12.503,-19.026 -33.132,-22.555 -54.499,-19.705Z" style="fill:#0081c7;"/></svg>